<svg width="336" height="475" viewBox="0 0 336 475" fill="none" xmlns="http://www.w3.org/2000/svg">
<mask id="path-1-inside-1" fill="white">
<path fill-rule="evenodd" clip-rule="evenodd" d="M0 0H297.699V40.1152H336V475H38.3005V434.885H0V0Z"/>
</mask>
<path fill-rule="evenodd" clip-rule="evenodd" d="M0 0H297.699V40.1152H336V475H38.3005V434.885H0V0Z" fill="#0E0E0E"/>
<path d="M297.699 0H298.699V-1H297.699V0ZM0 0V-1H-1V0H0ZM297.699 40.1152H296.699V41.1152H297.699V40.1152ZM336 40.1152H337V39.1152H336V40.1152ZM336 475V476H337V475H336ZM38.3005 475H37.3005V476H38.3005V475ZM38.3005 434.885H39.3005V433.885H38.3005V434.885ZM0 434.885H-1V435.885H0V434.885ZM297.699 -1H0V1H297.699V-1ZM298.699 40.1152V0H296.699V40.1152H298.699ZM336 39.1152H297.699V41.1152H336V39.1152ZM337 475V40.1152H335V475H337ZM38.3005 476H336V474H38.3005V476ZM37.3005 434.885V475H39.3005V434.885H37.3005ZM0 435.885H38.3005V433.885H0V435.885ZM-1 0V434.885H1V0H-1Z" fill="white" mask="url(#path-1-inside-1)"/>
<path d="M159.953 301.214V283.214H141.953V265.214H123.953V247.214H105.953V229.214H123.953V211.214H141.953V193.214H159.953V175.214H177.953V193.214H195.953V211.214H213.953V229.214H231.953V247.214H213.953V265.214H195.953V283.214H177.953V301.214H159.953Z" fill="#C60101"/>
<path d="M272.465 403.143V411.143H264.465V419.143H280.465V411.143H304.465V427.143H280.465V435.143H288.465V443.143H296.465V451.143H272.465V459.143H320.465V451.143H312.465V443.143H304.465V435.143H312.465V427.143H320.465V411.143H312.465V403.143H272.465Z" fill="#C60101"/>
<path d="M28 78V70H20V62H36V70H60V54H36V46H44V38H52V30H28V22H76V30H68V38H60V46H68V54H76V70H68V78H28Z" fill="#C60101"/>
<path d="M44 146.571V138.571H36V130.571H28V122.571H20V114.571H28V106.571H36V98.5714H44V90.5714H52V98.5714H60V106.571H68V114.571H76V122.571H68V130.571H60V138.571H52V146.571H44Z" fill="#C60101"/>
<path d="M288.465 334.571V342.571H280.465V350.571H272.465V358.571H264.465V366.571H272.465V374.571H280.465V382.571H288.465V390.571H296.465V382.571H304.465V374.571H312.465V366.571H320.465V358.571H312.465V350.571H304.465V342.571H296.465V334.571H288.465Z" fill="#C60101"/>
</svg>
