<svg width="336" height="475" viewBox="0 0 336 475" fill="none" xmlns="http://www.w3.org/2000/svg">
<mask id="path-1-inside-1" fill="white">
<path fill-rule="evenodd" clip-rule="evenodd" d="M0 0H297.699V40.1152H336V475H38.3005V434.885H0V0Z"/>
</mask>
<path fill-rule="evenodd" clip-rule="evenodd" d="M0 0H297.699V40.1152H336V475H38.3005V434.885H0V0Z" fill="#0E0E0E"/>
<path d="M297.699 0H298.699V-1H297.699V0ZM0 0V-1H-1V0H0ZM297.699 40.1152H296.699V41.1152H297.699V40.1152ZM336 40.1152H337V39.1152H336V40.1152ZM336 475V476H337V475H336ZM38.3005 475H37.3005V476H38.3005V475ZM38.3005 434.885H39.3005V433.885H38.3005V434.885ZM0 434.885H-1V435.885H0V434.885ZM297.699 -1H0V1H297.699V-1ZM298.699 40.1152V0H296.699V40.1152H298.699ZM336 39.1152H297.699V41.1152H336V39.1152ZM337 475V40.1152H335V475H337ZM38.3005 476H336V474H38.3005V476ZM37.3005 434.885V475H39.3005V434.885H37.3005ZM0 435.885H38.3005V433.885H0V435.885ZM-1 0V434.885H1V0H-1Z" fill="white" mask="url(#path-1-inside-1)"/>
<path d="M195.953 211.214H159.953V175.214H195.953V211.214ZM159.953 211.214V247.214H123.953V211.214H159.953ZM231.953 211.214V247.214H195.953V211.214H231.953ZM159.953 247.214H195.953V283.214H213.953V301.214H141.953V283.214H159.953V247.214Z" fill="#013DC6"/>
<path d="M272.465 403.143V411.143H264.465V427.143H272.465V435.143H264.465V451.143H272.465V459.143H304.465V451.143H312.465V435.143H304.465V427.143H320.465V411.143H312.465V403.143H272.465ZM288.465 435.143H304.465V451.143H280.465V443.143H288.465V435.143ZM272.465 411.143H304.465V419.143H288.465V427.143H272.465V411.143Z" fill="#013DC6"/>
<path d="M28 78V70H20V54H28V46H20V30H28V22H60V30H68V46H60V54H76V70H68V78H28ZM44 46H60V30H36V38H44V46ZM28 70H60V62H44V54H28V70Z" fill="#013DC6"/>
<path d="M60 106.572H44V90.5715H60V106.572ZM44 106.572V122.572H28V106.572H44ZM76 106.572V122.572H60V106.572H76ZM44 122.572H60V138.572H68V146.572H36V138.572H44V122.572Z" fill="#013DC6"/>
<path d="M304.465 374.572H288.465V390.572H304.465V374.572ZM288.465 374.572V358.572H272.465V374.572H288.465ZM320.465 374.572V358.572H304.465V374.572H320.465ZM288.465 358.572H304.465V342.572H312.465V334.572H280.465V342.572H288.465V358.572Z" fill="#013DC6"/>
</svg>
