<svg width="336" height="475" viewBox="0 0 336 475" fill="none" xmlns="http://www.w3.org/2000/svg">
<mask id="path-1-inside-1" fill="white">
<path d="M0 0H336V475H0V0Z"/>
</mask>
<path d="M0 0V-1H-1V0H0ZM336 0H337V-1H336V0ZM336 475V476H337V475H336ZM0 475H-1V476H0V475ZM0 1H336V-1H0V1ZM335 0V475H337V0H335ZM336 474H0V476H336V474ZM1 475V0H-1V475H1Z" fill="white" mask="url(#path-1-inside-1)"/>
<path d="M123.953 301.214V283.214H141.953V265.214H105.953V229.214H123.953V211.214H141.953V193.214H159.953V175.214H177.953V193.214H195.953V211.214H213.953V229.214H231.953V265.214H195.953V283.214H213.953V301.214H123.953Z" fill="#0E0E0E" fill-opacity="0.5"/>
</svg>
