<svg width="336" height="475" viewBox="0 0 336 475" fill="none" xmlns="http://www.w3.org/2000/svg">
<mask id="path-1-inside-1" fill="white">
<path fill-rule="evenodd" clip-rule="evenodd" d="M0 0H297.699V40.1152H336V475H38.3005V434.885H0V0Z"/>
</mask>
<path fill-rule="evenodd" clip-rule="evenodd" d="M0 0H297.699V40.1152H336V475H38.3005V434.885H0V0Z" fill="#0E0E0E"/>
<path d="M297.699 0H298.699V-1H297.699V0ZM0 0V-1H-1V0H0ZM297.699 40.1152H296.699V41.1152H297.699V40.1152ZM336 40.1152H337V39.1152H336V40.1152ZM336 475V476H337V475H336ZM38.3005 475H37.3005V476H38.3005V475ZM38.3005 434.885H39.3005V433.885H38.3005V434.885ZM0 434.885H-1V435.885H0V434.885ZM297.699 -1H0V1H297.699V-1ZM298.699 40.1152V0H296.699V40.1152H298.699ZM336 39.1152H297.699V41.1152H336V39.1152ZM337 475V40.1152H335V475H337ZM38.3005 476H336V474H38.3005V476ZM37.3005 434.885V475H39.3005V434.885H37.3005ZM0 435.885H38.3005V433.885H0V435.885ZM-1 0V434.885H1V0H-1Z" fill="white" mask="url(#path-1-inside-1)"/>
<path d="M264.465 403.143V459.143H280.465V435.143H288.465V443.143H296.465V451.143H304.465V459.143H320.465V451.143H312.465V443.143H304.465V435.143H296.465V427.143H304.465V419.143H312.465V411.143H320.465V403.143H296.465V411.143H288.465V419.143H280.465V403.143H264.465Z" fill="#C60101"/>
<path d="M20 78V22H36V46H44V38H52V30H60V22H76V30H68V38H60V46H52V54H60V62H68V70H76V78H52V70H44V62H36V78H20Z" fill="#C60101"/>
<path d="M44 146.571V138.571H36V130.571H28V122.571H20V98.5713H28V90.5713H44V98.5713H52V90.5713H68V98.5713H76V122.571H68V130.571H60V138.571H52V146.571H44Z" fill="#C60101"/>
<path d="M288.465 334.571V342.571H280.465V350.571H272.465V358.571H264.465V382.571H272.465V390.571H288.465V382.571H296.465V390.571H312.465V382.571H320.465V358.571H312.465V350.571H304.465V342.571H296.465V334.571H288.465Z" fill="#C60101"/>
<rect x="102.571" y="144.014" width="132.164" height="152.968" fill="white"/>
<rect x="87.8858" y="156.863" width="29.3699" height="126.963" fill="white"/>
<rect x="78.4018" y="169.712" width="29.3699" height="101.571" fill="white"/>
<rect x="122.763" y="283.521" width="97.2877" height="21.7215" fill="white"/>
<rect x="120.009" y="133" width="97.2877" height="21.7215" fill="white"/>
<rect width="29.3699" height="126.658" transform="matrix(1 0 0 -1 220.05 285.356)" fill="white"/>
<rect width="29.3699" height="101.571" transform="matrix(1 0 0 -1 229.84 275.26)" fill="white"/>
<rect x="102.571" y="144.014" width="17.4384" height="14.6849" fill="#C4C4C4"/>
<rect x="87.8858" y="156.557" width="17.4384" height="14.6849" fill="#C4C4C4"/>
<rect x="78.4018" y="169.712" width="9.48402" height="91.4749" fill="#C4C4C4"/>
<rect x="78.4018" y="256.292" width="17.4384" height="14.6849" fill="#C4C4C4"/>
<rect x="87.8858" y="268.835" width="17.4384" height="14.6849" fill="#C4C4C4"/>
<rect x="102.571" y="282.297" width="20.1918" height="14.6849" fill="#C4C4C4"/>
<rect x="122.763" y="290.557" width="17.4384" height="14.6849" fill="#C4C4C4"/>
<rect x="140.201" y="295.146" width="17.4384" height="10.0959" fill="#C4C4C4"/>
<rect x="157.639" y="297.899" width="17.4384" height="7.34247" fill="#C4C4C4"/>
<path d="M124.504 160.003H229.386V280.095H124.504V160.003Z" fill="black"/>
<path d="M112.85 170.091H136.158V269.767H112.85V170.091Z" fill="black"/>
<path d="M105.324 180.179H128.631V259.92H105.324V180.179Z" fill="black"/>
<path d="M140.528 269.527H217.732V286.58H140.528V269.527Z" fill="black"/>
<path d="M138.343 151.356H215.547V168.41H138.343V151.356Z" fill="black"/>
<path d="M217.732 270.968H241.039V171.532H217.732V270.968Z" fill="black"/>
<path d="M225.501 263.042H248.808V183.301H225.501V263.042Z" fill="black"/>
<path d="M124.504 160.003H138.343V171.532H124.504V160.003Z" fill="black"/>
<path d="M112.85 169.851H126.689V181.379H112.85V169.851Z" fill="black"/>
<path d="M105.324 180.179H119.163V191.707H105.324V180.179Z" fill="black"/>
<path d="M105.324 248.151H119.163V259.68H105.324V248.151Z" fill="black"/>
<path d="M112.85 257.998H126.689V269.527H112.85V257.998Z" fill="black"/>
<path d="M124.504 268.566H140.528V280.095H124.504V268.566Z" fill="black"/>
<path d="M140.528 275.051H154.366V286.58H140.528V275.051Z" fill="black"/>
<path d="M154.366 278.654H168.205V286.58H154.366V278.654Z" fill="black"/>
<path d="M168.205 280.816H182.043V286.58H168.205V280.816Z" fill="black"/>
<path fill-rule="evenodd" clip-rule="evenodd" d="M138.343 150.744H215.547V159.391H229.386V170.92H241.039V182.689H248.808V262.43L248.808 225.52H239.449V213.75H225.41V202.222H208.739V193.575H115.731V202.222H105.324V191.095V179.566H112.85V169.479V169.238H124.504V159.391H138.343V150.744Z" fill="#2B0101"/>
<rect x="143.566" y="210.402" width="10.7078" height="12.2374" fill="#2B0101"/>
<rect x="182.42" y="239.772" width="10.7078" height="12.2374" fill="#2B0101"/>
<rect x="132.858" y="256.598" width="10.7078" height="12.2374" fill="#2B0101"/>
<rect x="68" y="318.091" width="201" height="25.6986" fill="#C4C4C4"/>
<rect x="107.772" y="305.242" width="125.74" height="25.6986" fill="#636262"/>
<path d="M113.916 310.809H125.769V324.394H113.916V310.809Z" fill="black"/>
<path d="M112.599 311.95H115.233V323.226H112.599V311.95Z" fill="black"/>
<path d="M111.749 313.091H114.383V322.112H111.749V313.091Z" fill="black"/>
<path d="M115.727 323.199H124.452V325.128H115.727V323.199Z" fill="black"/>
<path d="M115.48 309.831H124.205V311.76H115.48V309.831Z" fill="black"/>
<path d="M124.452 323.362H127.086V312.113H124.452V323.362Z" fill="black"/>
<path d="M125.33 322.465H127.963V313.445H125.33V322.465Z" fill="black"/>
<path d="M113.916 310.809H115.48V312.113H113.916V310.809Z" fill="black"/>
<path d="M112.599 311.923H114.163V313.227H112.599V311.923Z" fill="black"/>
<path d="M111.749 313.091H113.313V314.396H111.749V313.091Z" fill="black"/>
<path d="M111.749 320.781H113.313V322.085H111.749V320.781Z" fill="black"/>
<path d="M112.599 321.895H114.163V323.199H112.599V321.895Z" fill="black"/>
<path d="M113.916 323.09H115.727V324.394H113.916V323.09Z" fill="black"/>
<path d="M115.727 323.824H117.291V325.128H115.727V323.824Z" fill="black"/>
<path d="M117.291 324.231H118.855V325.128H117.291V324.231Z" fill="black"/>
<path d="M118.855 324.476H120.419V325.128H118.855V324.476Z" fill="black"/>
</svg>
