<svg width="336" height="475" viewBox="0 0 336 475" fill="none" xmlns="http://www.w3.org/2000/svg">
<mask id="path-1-inside-1" fill="white">
<path fill-rule="evenodd" clip-rule="evenodd" d="M0 0H297.699V40.1152H336V475H38.3005V434.885H0V0Z"/>
</mask>
<path fill-rule="evenodd" clip-rule="evenodd" d="M0 0H297.699V40.1152H336V475H38.3005V434.885H0V0Z" fill="#0E0E0E"/>
<path d="M297.699 0H298.699V-1H297.699V0ZM0 0V-1H-1V0H0ZM297.699 40.1152H296.699V41.1152H297.699V40.1152ZM336 40.1152H337V39.1152H336V40.1152ZM336 475V476H337V475H336ZM38.3005 475H37.3005V476H38.3005V475ZM38.3005 434.885H39.3005V433.885H38.3005V434.885ZM0 434.885H-1V435.885H0V434.885ZM297.699 -1H0V1H297.699V-1ZM298.699 40.1152V0H296.699V40.1152H298.699ZM336 39.1152H297.699V41.1152H336V39.1152ZM337 475V40.1152H335V475H337ZM38.3005 476H336V474H38.3005V476ZM37.3005 434.885V475H39.3005V434.885H37.3005ZM0 435.885H38.3005V433.885H0V435.885ZM-1 0V434.885H1V0H-1Z" fill="white" mask="url(#path-1-inside-1)"/>
<path d="M264.465 403.143V459.143H280.465V435.143H288.465V443.143H296.465V451.143H304.465V459.143H320.465V451.143H312.465V443.143H304.465V435.143H296.465V427.143H304.465V419.143H312.465V411.143H320.465V403.143H296.465V411.143H288.465V419.143H280.465V403.143H264.465Z" fill="#C60101"/>
<path d="M20 78V22H36V46H44V38H52V30H60V22H76V30H68V38H60V46H52V54H60V62H68V70H76V78H52V70H44V62H36V78H20Z" fill="#C60101"/>
<path d="M44 146.571V138.571H36V130.571H28V122.571H20V114.571H28V106.571H36V98.5713H44V90.5713H52V98.5713H60V106.571H68V114.571H76V122.571H68V130.571H60V138.571H52V146.571H44Z" fill="#C60101"/>
<path d="M288.465 334.571V342.571H280.465V350.571H272.465V358.571H264.465V366.571H272.465V374.571H280.465V382.571H288.465V390.571H296.465V382.571H304.465V374.571H312.465V366.571H320.465V358.571H312.465V350.571H304.465V342.571H296.465V334.571H288.465Z" fill="#C60101"/>
<rect x="103.571" y="152.014" width="132.164" height="152.968" fill="white"/>
<rect x="88.8858" y="164.863" width="29.3699" height="126.963" fill="white"/>
<rect x="79.4018" y="177.712" width="29.3699" height="101.571" fill="white"/>
<rect x="123.763" y="291.521" width="97.2877" height="21.7215" fill="white"/>
<rect x="121.009" y="141" width="97.2877" height="21.7215" fill="white"/>
<rect width="29.3699" height="126.658" transform="matrix(1 0 0 -1 221.05 293.356)" fill="white"/>
<rect width="29.3699" height="101.571" transform="matrix(1 0 0 -1 230.84 283.26)" fill="white"/>
<rect x="103.571" y="152.014" width="17.4384" height="14.6849" fill="#C4C4C4"/>
<rect x="88.8858" y="164.557" width="17.4384" height="14.6849" fill="#C4C4C4"/>
<rect x="79.4018" y="177.712" width="9.48402" height="91.4749" fill="#C4C4C4"/>
<rect x="79.4018" y="264.292" width="17.4384" height="14.6849" fill="#C4C4C4"/>
<rect x="88.8858" y="276.835" width="17.4384" height="14.6849" fill="#C4C4C4"/>
<rect x="103.571" y="290.297" width="20.1918" height="14.6849" fill="#C4C4C4"/>
<rect x="123.763" y="298.557" width="17.4384" height="14.6849" fill="#C4C4C4"/>
<rect x="141.201" y="303.146" width="17.4384" height="10.0959" fill="#C4C4C4"/>
<rect x="158.639" y="305.899" width="17.4384" height="7.34247" fill="#C4C4C4"/>
<path d="M125.504 168.003H230.386V288.095H125.504V168.003Z" fill="black"/>
<path d="M113.85 178.091H137.158V277.767H113.85V178.091Z" fill="black"/>
<path d="M106.324 188.179H129.631V267.92H106.324V188.179Z" fill="black"/>
<path d="M141.528 277.527H218.732V294.58H141.528V277.527Z" fill="black"/>
<path d="M139.343 159.356H216.547V176.41H139.343V159.356Z" fill="black"/>
<path d="M218.732 278.968H242.039V179.532H218.732V278.968Z" fill="black"/>
<path d="M226.501 271.042H249.808V191.301H226.501V271.042Z" fill="black"/>
<path d="M125.504 168.003H139.343V179.532H125.504V168.003Z" fill="black"/>
<path d="M113.85 177.851H127.689V189.379H113.85V177.851Z" fill="black"/>
<path d="M106.324 188.179H120.163V199.707H106.324V188.179Z" fill="black"/>
<path d="M106.324 256.151H120.163V267.68H106.324V256.151Z" fill="black"/>
<path d="M113.85 265.998H127.689V277.527H113.85V265.998Z" fill="black"/>
<path d="M125.504 276.566H141.528V288.095H125.504V276.566Z" fill="black"/>
<path d="M141.528 283.051H155.366V294.58H141.528V283.051Z" fill="black"/>
<path d="M155.366 286.654H169.205V294.58H155.366V286.654Z" fill="black"/>
<path d="M169.205 288.816H183.043V294.58H169.205V288.816Z" fill="black"/>
<path fill-rule="evenodd" clip-rule="evenodd" d="M139.343 158.744H216.547V167.391H230.386V178.92H242.039V190.689H249.808V270.43L249.808 233.52H240.449V221.75H226.41V210.222H209.739V201.575H116.731V210.222H106.324V199.095V187.566H113.85V177.479V177.238H125.504V167.391H139.343V158.744Z" fill="#2B0101"/>
<rect x="144.566" y="218.402" width="10.7078" height="12.2374" fill="#2B0101"/>
<rect x="183.42" y="247.772" width="10.7078" height="12.2374" fill="#2B0101"/>
<rect x="133.858" y="264.598" width="10.7078" height="12.2374" fill="#2B0101"/>
<rect x="69" y="326.091" width="201" height="25.6986" fill="#C4C4C4"/>
<rect x="108.772" y="313.242" width="125.74" height="25.6986" fill="#636262"/>
<path d="M114.916 318.809H126.769V332.394H114.916V318.809Z" fill="black"/>
<path d="M113.599 319.95H116.233V331.226H113.599V319.95Z" fill="black"/>
<path d="M112.749 321.091H115.383V330.112H112.749V321.091Z" fill="black"/>
<path d="M116.727 331.199H125.452V333.128H116.727V331.199Z" fill="black"/>
<path d="M116.48 317.831H125.205V319.76H116.48V317.831Z" fill="black"/>
<path d="M125.452 331.362H128.086V320.113H125.452V331.362Z" fill="black"/>
<path d="M126.33 330.465H128.963V321.445H126.33V330.465Z" fill="black"/>
<path d="M114.916 318.809H116.48V320.113H114.916V318.809Z" fill="black"/>
<path d="M113.599 319.923H115.163V321.227H113.599V319.923Z" fill="black"/>
<path d="M112.749 321.091H114.313V322.396H112.749V321.091Z" fill="black"/>
<path d="M112.749 328.781H114.313V330.085H112.749V328.781Z" fill="black"/>
<path d="M113.599 329.895H115.163V331.199H113.599V329.895Z" fill="black"/>
<path d="M114.916 331.09H116.727V332.394H114.916V331.09Z" fill="black"/>
<path d="M116.727 331.824H118.291V333.128H116.727V331.824Z" fill="black"/>
<path d="M118.291 332.231H119.855V333.128H118.291V332.231Z" fill="black"/>
<path d="M119.855 332.476H121.419V333.128H119.855V332.476Z" fill="black"/>
</svg>
