<svg width="336" height="475" viewBox="0 0 336 475" fill="none" xmlns="http://www.w3.org/2000/svg">
<mask id="path-1-inside-1" fill="white">
<path fill-rule="evenodd" clip-rule="evenodd" d="M0 0H297.699V40.1152H336V475H38.3005V434.885H0V0Z"/>
</mask>
<path fill-rule="evenodd" clip-rule="evenodd" d="M0 0H297.699V40.1152H336V475H38.3005V434.885H0V0Z" fill="#0E0E0E"/>
<path d="M297.699 0H298.699V-1H297.699V0ZM0 0V-1H-1V0H0ZM297.699 40.1152H296.699V41.1152H297.699V40.1152ZM336 40.1152H337V39.1152H336V40.1152ZM336 475V476H337V475H336ZM38.3005 475H37.3005V476H38.3005V475ZM38.3005 434.885H39.3005V433.885H38.3005V434.885ZM0 434.885H-1V435.885H0V434.885ZM297.699 -1H0V1H297.699V-1ZM298.699 40.1152V0H296.699V40.1152H298.699ZM336 39.1152H297.699V41.1152H336V39.1152ZM337 475V40.1152H335V475H337ZM38.3005 476H336V474H38.3005V476ZM37.3005 434.885V475H39.3005V434.885H37.3005ZM0 435.885H38.3005V433.885H0V435.885ZM-1 0V434.885H1V0H-1Z" fill="white" mask="url(#path-1-inside-1)"/>
<path d="M320.465 451.143V419.143H312.465V411.143H304.465V403.143H272.465V411.143H264.465V451.143H272.465V459.143H312.465V451.143H320.465ZM304.465 451.143H280.465V411.143H296.465V419.143H288.465V427.143H304.465V451.143ZM312.465 403.143V411.143H320.465V403.143H312.465Z" fill="#C60101"/>
<path d="M76 30V62H68V70H60V78H28V70H20V30H28V22H68V30H76ZM60 30H36V70H52V62H44V54H60V30ZM68 78V70H76V78H68Z" fill="#C60101"/>
<path d="M44 146.571V138.571H36V130.571H28V122.571H20V114.571H28V106.571H36V98.5713H44V90.5713H52V98.5713H60V106.571H68V114.571H76V122.571H68V130.571H60V138.571H52V146.571H44Z" fill="#C60101"/>
<path d="M288.465 334.571V342.571H280.465V350.571H272.465V358.571H264.465V366.571H272.465V374.571H280.465V382.571H288.465V390.571H296.465V382.571H304.465V374.571H312.465V366.571H320.465V358.571H312.465V350.571H304.465V342.571H296.465V334.571H288.465Z" fill="#C60101"/>
<rect x="124.5" y="280.773" width="105.379" height="28.3712" fill="#424242"/>
<path d="M163.409 266.992H185.295V319.682H163.409V266.992Z" fill="#C60101"/>
<rect x="229.879" y="202.955" width="21.8864" height="77.0076" fill="#C60101"/>
<rect x="103.424" y="202.955" width="21.8864" height="73.7652" fill="#C60101"/>
<rect x="71" y="219.977" width="21.8864" height="64.8485" fill="#C60101"/>
<rect x="145.576" y="181.879" width="40.5303" height="101.326" fill="#424242"/>
<rect x="92.8864" y="263.75" width="171.038" height="31.6136" fill="#C4C4C4"/>
<rect x="103.424" y="227.273" width="21.8864" height="42.9621" fill="#C4C4C4"/>
<rect x="229.879" y="227.273" width="21.8864" height="42.1515" fill="#C4C4C4"/>
<rect x="165.03" y="181.068" width="40.5303" height="101.326" fill="black"/>
<rect x="197.455" y="192.417" width="21.8864" height="89.9773" fill="#C60101"/>
<rect x="134.227" y="192.417" width="21.8864" height="89.9773" fill="#C60101"/>
<path d="M262.303 219.977H284.189V282.394H262.303V219.977Z" fill="#C60101"/>
<rect x="157.735" y="161.614" width="39.7197" height="19.4545" fill="#C60101"/>
<rect width="31.6136" height="19.4545" transform="matrix(0 -1 -1 0 185.295 161.614)" fill="#C60101"/>
<rect x="165.03" y="182.689" width="9.72727" height="37.2879" fill="white"/>
<rect x="165.03" y="229.705" width="9.72727" height="17.8333" fill="white"/>
<rect x="165.03" y="231.326" width="9.72727" height="12.1591" fill="white"/>
<rect x="156.114" y="340.758" width="41.3409" height="30.803" fill="#CE5700"/>
<rect x="159.356" y="345.621" width="11.3485" height="8.10606" fill="#FFD234"/>
<rect x="159.356" y="345.621" width="11.3485" height="8.10606" fill="#FFD234"/>
<rect x="159.356" y="345.621" width="11.3485" height="8.10606" fill="#FFD234"/>
<rect x="148.008" y="336.705" width="11.3485" height="8.10606" fill="#FFD234"/>
<rect x="148.008" y="336.705" width="11.3485" height="8.10606" fill="#FFD234"/>
<rect x="148.008" y="336.705" width="11.3485" height="8.10606" fill="#FFD234"/>
<rect x="159.356" y="361.023" width="11.3485" height="8.10606" fill="#FFD234"/>
<rect x="159.356" y="361.023" width="11.3485" height="8.10606" fill="#FFD234"/>
<rect x="159.356" y="361.023" width="11.3485" height="8.10606" fill="#FFD234"/>
<rect x="148.008" y="352.917" width="11.3485" height="8.10606" fill="#FFD234"/>
<rect x="148.008" y="352.917" width="11.3485" height="8.10606" fill="#FFD234"/>
<rect x="148.008" y="352.917" width="11.3485" height="8.10606" fill="#FFD234"/>
<rect x="169.894" y="369.939" width="11.3485" height="8.10606" fill="#C60000"/>
<rect x="179.621" y="376.424" width="11.3485" height="8.10606" fill="#C60000"/>
<rect x="159.356" y="377.235" width="11.3485" height="8.10606" fill="#C60000"/>
<rect x="169.894" y="354.538" width="11.3485" height="8.10606" fill="#C60000"/>
<rect x="169.083" y="336.705" width="11.3485" height="8.10606" fill="#C60000"/>
<rect x="171.515" y="383.72" width="11.3485" height="8.10606" fill="#FFD234"/>
<rect x="171.515" y="383.72" width="11.3485" height="8.10606" fill="#FFD234"/>
<rect x="171.515" y="383.72" width="11.3485" height="8.10606" fill="#FFD234"/>
<rect x="190.97" y="353.728" width="11.3485" height="8.10606" fill="#FFD234"/>
<rect x="190.97" y="353.728" width="11.3485" height="8.10606" fill="#FFD234"/>
<rect x="190.97" y="353.728" width="11.3485" height="8.10606" fill="#FFD234"/>
<rect x="191.78" y="336.705" width="11.3485" height="8.10606" fill="#FFD234"/>
<rect x="191.78" y="336.705" width="11.3485" height="8.10606" fill="#FFD234"/>
<rect x="191.78" y="336.705" width="11.3485" height="8.10606" fill="#FFD234"/>
<rect x="179.621" y="344.811" width="11.3485" height="8.10606" fill="#FFD234"/>
<rect x="179.621" y="344.811" width="11.3485" height="8.10606" fill="#FFD234"/>
<rect x="179.621" y="344.811" width="11.3485" height="8.10606" fill="#FFD234"/>
<rect x="181.242" y="361.023" width="11.3485" height="8.10606" fill="#FFD234"/>
<rect x="181.242" y="361.023" width="11.3485" height="8.10606" fill="#FFD234"/>
<rect x="181.242" y="361.023" width="11.3485" height="8.10606" fill="#FFD234"/>
<rect x="159.356" y="355.349" width="11.3485" height="8.10606" fill="#FFD234"/>
<rect x="159.356" y="355.349" width="11.3485" height="8.10606" fill="#FFD234"/>
<rect x="159.356" y="355.349" width="11.3485" height="8.10606" fill="white"/>
<rect x="179.621" y="354.538" width="11.3485" height="8.10606" fill="#FFD234"/>
<rect x="179.621" y="354.538" width="11.3485" height="8.10606" fill="#FFD234"/>
<rect x="179.621" y="354.538" width="11.3485" height="8.10606" fill="white"/>
<rect x="71" y="243.485" width="21.8864" height="81.0606" fill="#C4C4C4"/>
<rect x="262.303" y="243.485" width="22.697" height="81.0606" fill="#C4C4C4"/>
<path d="M237 109V106H234V103H231V100H228V97H231V94H234V91H237V88H240V91H243V94H246V97H249V100H246V103H243V106H240V109H237Z" fill="#C60101"/>
</svg>
