<svg width="1028" height="1635" viewBox="0 0 1028 1635" fill="none" xmlns="http://www.w3.org/2000/svg">
<path d="M0.526855 410.5C0.526855 651.572 270.634 999 504.527 999C738.419 999 1027.53 651.572 1027.53 410.5C1027.53 169.428 738.419 0.5 504.527 0.5C270.634 0.5 0.526855 169.428 0.526855 410.5Z" fill="#00FF94"/>
<path d="M9.10749 1339.29C5.87749 1450.1 36.2181 1520.42 87.2254 1563.63C138.255 1606.86 210.065 1623.04 289.948 1625.37C369.83 1627.7 442.461 1615.72 495.922 1575.54C549.36 1535.37 583.744 1466.94 586.974 1356.13C590.205 1245.3 561.466 1119.62 511.955 1021.08C462.425 922.494 392.209 851.257 312.579 848.936C232.949 846.615 158.704 913.641 103.515 1009.17C48.348 1104.67 12.3379 1228.46 9.10749 1339.29Z" fill="#00FF94" stroke="black"/>
</svg>
