<svg width="1028" height="1635" viewBox="0 0 1028 1635" fill="none" xmlns="http://www.w3.org/2000/svg">
<path d="M8.60772 1339.27C2.14194 1561.1 130.084 1621.21 289.933 1625.87C449.783 1630.53 581.008 1577.97 587.474 1356.15C593.94 1134.32 472.443 853.095 312.594 848.436C152.744 843.777 15.0735 1117.45 8.60772 1339.27Z" fill="#00FF94"/>
<path d="M0.526855 410.5C0.526855 651.572 270.634 999 504.527 999C738.419 999 1027.53 651.572 1027.53 410.5C1027.53 169.428 738.419 0.5 504.527 0.5C270.634 0.5 0.526855 169.428 0.526855 410.5Z" fill="#00FF94"/>
<path d="M638.327 490.968C629.955 594.19 605.527 725.417 688.874 732.177C772.221 738.937 960.497 620.998 968.868 517.776C977.24 414.554 916.461 325.397 833.114 318.637C749.767 311.877 646.699 387.746 638.327 490.968Z" fill="black"/>
<path d="M455.084 501.968C463.456 605.19 487.884 736.417 404.537 743.177C321.19 749.937 132.914 631.998 124.543 528.776C116.171 425.554 176.95 336.397 260.297 329.637C343.644 322.877 446.713 398.746 455.084 501.968Z" fill="black"/>
</svg>
