<svg width="953" height="1369" viewBox="0 0 953 1369" fill="none" xmlns="http://www.w3.org/2000/svg">
<g filter="url(#filter0_d)">
<ellipse cx="250.5" cy="889" rx="107.5" ry="333" fill="#C4C4C4"/>
<path d="M659.43 1345.49C626.997 1344.6 597.012 1343.25 575.313 1335.49C564.511 1331.63 555.93 1326.24 550.128 1318.66C544.347 1311.12 541.179 1301.22 541.54 1288.05C542.987 1235.35 595.378 1193.46 659.32 1195.21C723.262 1196.97 773.278 1241.67 771.831 1294.37C771.468 1307.61 768.254 1317.36 762.819 1324.6C757.384 1331.84 749.58 1336.75 739.68 1340.02C719.739 1346.61 691.883 1346.38 659.43 1345.49Z" fill="#C4C4C4" stroke="#0E0E0E" stroke-width="4"/>
<ellipse rx="94.5" ry="212.5" transform="matrix(-0.9025 0.430689 0.430689 0.9025 771.808 860.481)" fill="#C4C4C4"/>
<path d="M192.21 988.478C195.58 1099.09 229.978 1167.14 283.152 1207C336.397 1246.91 408.767 1258.78 488.562 1256.35C568.357 1253.92 639.869 1237.66 690.585 1194.58C741.234 1151.56 771.425 1081.54 768.055 970.932C764.683 860.278 728.557 736.693 673.345 641.413C618.067 546.017 544.002 479.543 464.965 481.951C385.927 484.359 316.048 555.22 266.68 653.804C217.372 752.27 188.838 877.824 192.21 988.478Z" fill="#C4C4C4" stroke="black" stroke-width="3"/>
<path d="M929 383.5C929 598.166 757.009 745 542.662 745C328.196 745 139 598.061 139 383.5C139 168.806 328.345 2 542.662 2C756.863 2 929 168.696 929 383.5Z" fill="#C4C4C4" stroke="black" stroke-width="4"/>
<ellipse cx="552" cy="417" rx="326" ry="295" fill="black"/>
<path fill-rule="evenodd" clip-rule="evenodd" d="M792.193 573.499C809.473 517.272 809.315 454.32 787.744 393.533C740.419 260.17 606.514 183.688 477.784 210.497C488.324 205.117 499.353 200.356 510.834 196.282C645.119 148.63 790.512 212.952 835.579 339.951C864.457 421.329 845.133 508.695 792.193 573.499Z" fill="url(#paint0_linear)"/>
<path d="M264.289 912.32C239.108 965.087 206.837 1008.23 175.099 1035.35C159.229 1048.91 143.565 1058.4 129.056 1063.13C114.561 1067.86 101.336 1067.8 90.1476 1062.46C78.959 1057.12 70.594 1046.88 65.1493 1032.63C59.6994 1018.38 57.2253 1000.23 57.785 979.366C58.9043 937.635 72.1452 885.409 97.3265 832.643C122.508 779.876 154.779 736.732 186.516 709.613C202.387 696.051 218.051 686.56 232.56 681.83C247.055 677.106 260.279 677.166 271.468 682.505C282.656 687.845 291.021 698.087 296.466 712.328C301.916 726.582 304.39 744.729 303.83 765.597C302.711 807.328 289.47 859.553 264.289 912.32Z" fill="#C4C4C4" stroke="#0E0E0E" stroke-width="4"/>
<path d="M391.43 1355.49C358.997 1354.6 329.012 1353.25 307.313 1345.49C296.511 1341.63 287.93 1336.24 282.128 1328.66C276.347 1321.12 273.179 1311.22 273.54 1298.05C274.987 1245.35 327.378 1203.46 391.32 1205.21C455.262 1206.97 505.278 1251.67 503.831 1304.37C503.468 1317.61 500.254 1327.36 494.819 1334.6C489.384 1341.84 481.58 1346.75 471.68 1350.02C451.739 1356.61 423.883 1356.38 391.43 1355.49Z" fill="#C4C4C4" stroke="#0E0E0E" stroke-width="4"/>
</g>
<defs>
<filter id="filter0_d" x="0" y="0" width="952.616" height="1368.59" filterUnits="userSpaceOnUse" color-interpolation-filters="sRGB">
<feFlood flood-opacity="0" result="BackgroundImageFix"/>
<feColorMatrix in="SourceAlpha" type="matrix" values="0 0 0 0 0 0 0 0 0 0 0 0 0 0 0 0 0 0 127 0"/>
<feOffset dy="4"/>
<feGaussianBlur stdDeviation="2"/>
<feColorMatrix type="matrix" values="0 0 0 0 0 0 0 0 0 0 0 0 0 0 0 0 0 0 0.25 0"/>
<feBlend mode="normal" in2="BackgroundImageFix" result="effect1_dropShadow"/>
<feBlend mode="normal" in="SourceGraphic" in2="effect1_dropShadow" result="shape"/>
</filter>
<linearGradient id="paint0_linear" x1="615.489" y1="159.144" x2="765.845" y2="582.849" gradientUnits="userSpaceOnUse">
<stop stop-color="#72FFE6"/>
<stop offset="1" stop-color="#BC88FF" stop-opacity="0"/>
<stop offset="1" stop-color="#BC88FF" stop-opacity="0"/>
<stop offset="1" stop-color="#AD6DFF"/>
</linearGradient>
</defs>
</svg>
