<svg width="1088" height="1957" viewBox="0 0 1088 1957" fill="none" xmlns="http://www.w3.org/2000/svg">
<path d="M664 1431C664 1538.14 614.751 1956.5 554 1956.5C493.249 1956.5 444 1538.14 444 1431C444 1323.86 493.249 1237 554 1237C614.751 1237 664 1323.86 664 1431Z" fill="#FF6B00"/>
<path d="M654 1371.82C654 1446.27 609.228 1737 554 1737C498.772 1737 454 1446.27 454 1371.82C454 1297.36 498.772 1237 554 1237C609.228 1237 654 1297.36 654 1371.82Z" fill="#FFD600"/>
<path d="M689.059 803.901L707.931 1149.8L997.631 1397.46L900.704 1051.58L689.059 803.901Z" fill="#FF0000"/>
<path d="M398.874 803.901L380.002 1149.8L90.302 1397.46L187.229 1051.58L398.874 803.901Z" fill="#FF0000"/>
<path d="M744 620C744 860.796 635.955 1056 544 1056C452.045 1056 344 860.796 344 620C344 379.204 452.045 0 544 0C635.955 0 744 379.204 744 620Z" fill="#FF0000"/>
<path d="M744 912C744 1152.8 635.955 1348 544 1348C452.045 1348 344 1152.8 344 912C344 671.204 452.045 292 544 292C635.955 292 744 671.204 744 912Z" fill="white"/>
<path d="M631.5 628C631.5 676.325 592.325 715.5 544 715.5C495.675 715.5 456.5 676.325 456.5 628C456.5 579.675 495.675 540.5 544 540.5C592.325 540.5 631.5 579.675 631.5 628Z" fill="#D6E6FF" stroke="#FF0000" stroke-width="25"/>
<rect x="423" y="1284" width="241" height="64" fill="#545454"/>
</svg>
