<svg width="2000" height="1746" viewBox="0 0 2000 1746" fill="none" xmlns="http://www.w3.org/2000/svg">
<rect x="789.61" y="581.818" width="15.5844" height="15.5844" fill="#C4C4C4"/>
<rect x="929.87" y="420.779" width="15.5844" height="15.5844" fill="#C4C4C4"/>
<rect x="400" y="420.779" width="15.5844" height="15.5844" fill="#C4C4C4"/>
<rect x="524.675" y="514.286" width="15.5844" height="15.5844" fill="#C4C4C4"/>
<rect x="1049.35" y="1075.32" width="15.5844" height="15.5844" fill="#C4C4C4"/>
<rect x="971.429" y="1412.99" width="15.5844" height="15.5844" fill="#C4C4C4"/>
<rect x="1158.44" y="883.117" width="15.5844" height="15.5844" fill="#C4C4C4"/>
<rect x="1438.96" y="1407.79" width="15.5844" height="15.5844" fill="#C4C4C4"/>
<rect x="618.182" y="1553.25" width="15.5844" height="15.5844" fill="#C4C4C4"/>
<rect x="862.338" y="1729.87" width="15.5844" height="15.5844" fill="#C4C4C4"/>
<rect x="1158.44" y="1605.19" width="15.5844" height="15.5844" fill="#C4C4C4"/>
<rect x="212.987" y="436.364" width="15.5844" height="15.5844" fill="#C4C4C4"/>
<rect x="1054.55" y="685.714" width="15.5844" height="15.5844" fill="#C4C4C4"/>
<rect x="135.065" y="145.455" width="15.5844" height="15.5844" fill="#C4C4C4"/>
<rect x="233.766" y="831.169" width="15.5844" height="15.5844" fill="#C4C4C4"/>
<rect x="477.922" y="1007.79" width="15.5844" height="15.5844" fill="#C4C4C4"/>
<rect x="851.948" y="451.948" width="15.5844" height="15.5844" fill="#C4C4C4"/>
<rect x="774.026" y="883.117" width="15.5844" height="15.5844" fill="#C4C4C4"/>
<rect x="212.987" y="436.364" width="15.5844" height="15.5844" fill="#C4C4C4"/>
<rect y="867.532" width="15.5844" height="15.5844" fill="#C4C4C4"/>
<rect x="555.844" y="1298.7" width="15.5844" height="15.5844" fill="#C4C4C4"/>
<rect x="1594.81" y="342.857" width="15.5844" height="15.5844" fill="#C4C4C4"/>
<rect x="1719.48" y="436.364" width="15.5844" height="15.5844" fill="#C4C4C4"/>
<rect x="1859.74" y="275.325" width="15.5844" height="15.5844" fill="#C4C4C4"/>
<rect x="1329.87" y="275.325" width="15.5844" height="15.5844" fill="#C4C4C4"/>
<rect x="1594.81" y="207.792" width="15.5844" height="15.5844" fill="#C4C4C4"/>
<rect x="1516.88" y="545.455" width="15.5844" height="15.5844" fill="#C4C4C4"/>
<rect x="1703.9" y="15.5844" width="15.5844" height="15.5844" fill="#C4C4C4"/>
<rect x="1984.42" y="540.26" width="15.5844" height="15.5844" fill="#C4C4C4"/>
<rect x="1064.94" width="15.5844" height="15.5844" fill="#C4C4C4"/>
<rect x="1163.64" y="685.714" width="15.5844" height="15.5844" fill="#C4C4C4"/>
<rect x="1407.79" y="862.338" width="15.5844" height="15.5844" fill="#C4C4C4"/>
<rect x="1781.82" y="306.493" width="15.5844" height="15.5844" fill="#C4C4C4"/>
<rect x="1703.9" y="737.662" width="15.5844" height="15.5844" fill="#C4C4C4"/>
<rect x="1142.86" y="290.909" width="15.5844" height="15.5844" fill="#C4C4C4"/>
<rect x="929.87" y="722.078" width="15.5844" height="15.5844" fill="#C4C4C4"/>
<rect x="1485.71" y="1153.25" width="15.5844" height="15.5844" fill="#C4C4C4"/>
</svg>
