<svg width="385" height="338" viewBox="0 0 385 338" fill="none" xmlns="http://www.w3.org/2000/svg">
<rect x="152.5" y="112.5" width="2" height="2" fill="#C4C4C4" stroke="black"/>
<rect x="179.5" y="81.5" width="2" height="2" fill="#C4C4C4" stroke="black"/>
<rect x="77.5" y="81.5" width="2" height="2" fill="#C4C4C4" stroke="black"/>
<rect x="202.5" y="207.5" width="2" height="2" fill="#C4C4C4" stroke="black"/>
<rect x="187.5" y="272.5" width="2" height="2" fill="#C4C4C4" stroke="black"/>
<rect x="277.5" y="271.5" width="2" height="2" fill="#C4C4C4" stroke="black"/>
<rect x="119.5" y="299.5" width="2" height="2" fill="#C4C4C4" stroke="black"/>
<rect x="166.5" y="333.5" width="4" height="4" fill="#C4C4C4" stroke="black"/>
<rect x="223.5" y="309.5" width="2" height="2" fill="#C4C4C4" stroke="black"/>
<rect x="41.5" y="84.5" width="2" height="2" fill="#C4C4C4" stroke="black"/>
<rect x="203.5" y="132.5" width="2" height="2" fill="#C4C4C4" stroke="black"/>
<rect x="26.5" y="28.5" width="4" height="4" fill="#C4C4C4" stroke="black"/>
<rect x="45.5" y="160.5" width="2" height="2" fill="#C4C4C4" stroke="black"/>
<rect x="92.5" y="194.5" width="2" height="2" fill="#C4C4C4" stroke="black"/>
<rect x="164.5" y="87.5" width="2" height="2" fill="#C4C4C4" stroke="black"/>
<rect x="149.5" y="170.5" width="2" height="2" fill="#C4C4C4" stroke="black"/>
<rect x="41.5" y="84.5" width="2" height="2" fill="#C4C4C4" stroke="black"/>
<rect x="0.5" y="167.5" width="4" height="4" fill="#C4C4C4" stroke="black"/>
<rect x="307.5" y="66.5" width="2" height="2" fill="#C4C4C4" stroke="black"/>
<rect x="358.5" y="53.5" width="2" height="2" fill="#C4C4C4" stroke="black"/>
<rect x="256.5" y="53.5" width="2" height="2" fill="#C4C4C4" stroke="black"/>
<rect x="307.5" y="40.5" width="2" height="2" fill="#C4C4C4" stroke="black"/>
<rect x="292.5" y="105.5" width="4" height="4" fill="#C4C4C4" stroke="black"/>
<rect x="328.5" y="3.5" width="2" height="2" fill="#C4C4C4" stroke="black"/>
<rect x="382.5" y="104.5" width="2" height="2" fill="#C4C4C4" stroke="black"/>
<rect x="205.5" y="0.5" width="2" height="2" fill="#C4C4C4" stroke="black"/>
<rect x="224.5" y="132.5" width="2" height="2" fill="#C4C4C4" stroke="black"/>
<rect x="271.5" y="166.5" width="2" height="2" fill="#C4C4C4" stroke="black"/>
<rect x="343.5" y="59.5" width="2" height="2" fill="#C4C4C4" stroke="black"/>
<rect x="328.5" y="142.5" width="2" height="2" fill="#C4C4C4" stroke="black"/>
<rect x="220.5" y="56.5" width="2" height="2" fill="#C4C4C4" stroke="black"/>
<rect x="179.5" y="139.5" width="4" height="4" fill="#C4C4C4" stroke="black"/>
<rect x="286.5" y="222.5" width="2" height="2" fill="#C4C4C4" stroke="black"/>
</svg>
